<svg width="32" height="32" viewBox="0 0 1300 1300" fill="none" xmlns="http://www.w3.org/2000/svg">
  <rect width="1300" height="1300" fill="#1E3A8A"/>
  <path d="M558.131 693.558C560.004 680.659 557.611 670.568 550.953 663.286C544.503 656.004 535.973 650.49 525.362 646.745C514.959 642.792 504.764 639.567 494.778 637.071C482.294 633.95 469.707 630.101 457.015 625.523C444.323 620.946 432.672 615.121 422.061 608.047C411.658 600.765 403.336 591.818 397.094 581.207C391.061 570.388 388.356 557.28 388.98 541.884C389.812 525.24 394.181 510.571 402.088 497.88C410.202 485.188 420.605 474.577 433.296 466.047C446.196 457.517 460.24 451.171 475.428 447.01C490.616 442.849 505.701 440.872 520.681 441.08C541.903 441.496 561.148 445.865 578.417 454.188C595.894 462.51 609.73 474.473 619.924 490.078C630.119 505.682 634.905 524.615 634.28 546.878L578.417 546.565C578.833 534.706 576.44 524.511 571.239 515.981C566.037 507.451 558.859 500.897 549.705 496.319C540.55 491.534 530.147 489.037 518.496 488.829C507.469 488.621 496.65 490.39 486.039 494.135C475.428 497.672 466.378 503.289 458.887 510.988C451.397 518.478 446.82 528.256 445.156 540.324C443.907 549.27 445.26 556.656 449.213 562.482C453.166 568.099 458.575 572.677 465.441 576.214C472.515 579.543 479.901 582.351 487.6 584.64C495.506 586.721 502.684 588.593 509.134 590.258C526.194 595.043 543.047 601.077 559.692 608.359C576.336 615.641 589.86 625.732 600.263 638.631C610.666 651.323 615.347 668.071 614.307 688.877C613.475 706.562 608.793 721.958 600.263 735.066C591.941 747.966 581.122 758.681 567.806 767.211C554.698 775.533 540.238 781.671 524.426 785.624C508.613 789.577 492.801 791.45 476.989 791.242C455.142 790.826 434.753 786.352 415.819 777.822C397.094 769.084 382.114 756.6 370.879 740.372C359.644 723.935 354.338 703.961 354.962 680.451L411.45 680.763C411.45 694.287 414.259 705.73 419.877 715.092C425.702 724.247 433.712 731.217 443.907 736.002C454.102 740.788 465.753 743.284 478.861 743.492C489.888 743.7 501.123 742.244 512.566 739.123C524.218 736.002 534.205 730.801 542.527 723.519C551.057 716.029 556.259 706.042 558.131 693.558ZM889.967 318.417C913.403 318.417 932.577 323.957 947.491 335.035C962.405 346.114 969.861 359.536 969.861 375.302C969.861 386.381 966.027 396.394 958.357 405.342C950.687 414.29 939.395 418.765 924.481 418.765C914.681 418.765 906.798 416.634 900.833 412.373C894.867 408.112 891.885 402.573 891.885 395.755C891.885 390.642 893.376 385.102 896.359 379.137C899.768 370.615 901.472 364.01 901.472 359.323C901.472 346.54 895.506 340.149 883.576 340.149C853.322 340.149 834.361 391.707 826.691 494.824L824.773 511.442H873.349V526.142L859.927 536.369H822.217L801.764 719.806C793.242 786.278 776.624 839.754 751.91 880.234C727.622 921.14 694.386 941.593 652.202 941.593C630.47 941.593 612.148 936.267 597.234 925.614C581.895 915.387 574.225 902.391 574.225 886.626C574.225 875.121 578.273 864.894 586.369 855.946C594.039 847.424 605.117 843.163 619.605 843.163C628.979 843.163 636.649 845.081 642.614 848.915C648.58 853.176 651.563 859.142 651.563 866.812C651.563 870.221 650.284 875.334 647.728 882.151C644.319 888.969 642.614 895.148 642.614 900.687C642.614 913.47 648.58 919.862 660.511 919.862C675.85 919.862 687.568 905.8 695.664 877.677C703.76 849.981 710.365 803.749 715.478 738.981L737.848 536.369H693.747L705.252 511.442H741.044L741.683 503.772C747.649 448.805 763.628 404.277 789.62 370.189C815.612 335.674 849.061 318.417 889.967 318.417Z" fill="#E7C8E7"/>
</svg>
